<?xml version="1.0" standalone="no"?>
<!DOCTYPE svg PUBLIC "-//W3C//DTD SVG 20010904//EN"
 "http://www.w3.org/TR/2001/REC-SVG-20010904/DTD/svg10.dtd">
<svg version="1.0" xmlns="http://www.w3.org/2000/svg"
 width="1024.000000pt" height="1024.000000pt" viewBox="0 0 1024.000000 1024.000000"
 preserveAspectRatio="xMidYMid meet">

<g transform="translate(0.000000,1024.000000) scale(0.100000,-0.100000)"
fill="#000000" stroke="none">
<path d="M4114 6174 c-26 -9 -91 -60 -185 -147 -80 -72 -298 -271 -486 -440
-188 -170 -349 -319 -357 -332 -21 -32 -20 -104 1 -135 9 -13 30 -36 47 -51
28 -24 32 -25 44 -10 11 14 12 13 3 -5 -10 -20 2 -33 116 -135 70 -63 262
-238 428 -389 374 -343 356 -327 411 -336 125 -18 217 83 185 204 -11 40 -65
93 -557 542 l-82 75 1856 5 c1022 3 1858 6 1860 8 2 1 0 7 -4 14 -4 7 -3 8 4
4 6 -4 24 0 40 8 32 16 72 95 72 141 0 31 -30 93 -57 117 -56 51 47 48 -1935
48 -1583 1 -1840 3 -1824 15 10 8 15 19 10 26 -4 8 -3 10 5 5 7 -4 54 32 119
92 59 54 191 176 294 271 151 139 189 179 198 209 14 52 13 70 -10 116 -36 75
-118 108 -196 80z m-201 -209 c-7 -21 -12 -19 -10 4 0 11 5 18 9 15 4 -3 5
-11 1 -19z m247 -105 c0 -5 -5 -10 -11 -10 -5 0 -7 5 -4 10 3 6 8 10 11 10 2
0 4 -4 4 -10z m-473 -116 c-3 -3 -12 -4 -19 -1 -8 3 -5 6 6 6 11 1 17 -2 13
-5z m3703 -428 c0 -3 -4 -8 -10 -11 -5 -3 -10 -1 -10 4 0 6 5 11 10 11 6 0 10
-2 10 -4z m-3552 -91 c-3 -3 -9 2 -12 12 -6 14 -5 15 5 6 7 -7 10 -15 7 -18z
m-258 -10 c-7 -9 -15 -13 -19 -10 -3 3 1 10 9 15 21 14 24 12 10 -5z m2691
-48 c-10 -9 -11 -8 -5 6 3 10 9 15 12 12 3 -3 0 -11 -7 -18z m219 -17 c0 -5
-5 -10 -11 -10 -5 0 -7 5 -4 10 3 6 8 10 11 10 2 0 4 -4 4 -10z m-69 -113
c-10 -9 -11 -8 -5 6 3 10 9 15 12 12 3 -3 0 -11 -7 -18z m-2641 -2 c0 -1 -12
-2 -26 -2 -17 0 -22 2 -13 7 10 7 39 3 39 -5z m867 -1 c-3 -3 -12 -4 -19 -1
-8 3 -5 6 6 6 11 1 17 -2 13 -5z m390 0 c-3 -3 -12 -4 -19 -1 -8 3 -5 6 6 6
11 1 17 -2 13 -5z m-1302 -134 c3 -5 -1 -10 -10 -10 -9 0 -13 5 -10 10 3 6 8
10 10 10 2 0 7 -4 10 -10z m-74 -97 c-12 -20 -14 -14 -5 12 4 9 9 14 11 11 3
-2 0 -13 -6 -23z"/>
</g>
</svg>
